<svg width="18" height="18" viewBox="0 0 18 18" fill="none" xmlns="http://www.w3.org/2000/svg">
<path d="M9.00005 1.79999C5.02385 1.79999 1.80005 5.02379 1.80005 8.99999C1.80005 12.3738 4.12325 15.1968 7.25525 15.978C7.22165 15.8808 7.20005 15.768 7.20005 15.6282V14.3976C6.90785 14.3976 6.41825 14.3976 6.29525 14.3976C5.80265 14.3976 5.36465 14.1858 5.15225 13.7922C4.91645 13.3548 4.87565 12.6858 4.29125 12.2766C4.11785 12.1404 4.24985 11.985 4.44965 12.006C4.81865 12.1104 5.12465 12.3636 5.41265 12.7392C5.69945 13.1154 5.83445 13.2006 6.37025 13.2006C6.63005 13.2006 7.01885 13.1856 7.38485 13.128C7.58165 12.6282 7.92185 12.168 8.33765 11.9508C5.94005 11.7042 4.79585 10.5114 4.79585 8.89198C4.79585 8.19479 5.09285 7.52039 5.59745 6.95219C5.43185 6.38819 5.22365 5.23799 5.66105 4.79999C6.73985 4.79999 7.39205 5.49959 7.54865 5.68859C8.08625 5.50439 8.67665 5.39999 9.29705 5.39999C9.91865 5.39999 10.5114 5.50439 11.0502 5.68979C11.205 5.50199 11.8578 4.79999 12.939 4.79999C13.3782 5.23859 13.1676 6.39359 13.0002 6.95639C13.5018 7.52339 13.797 8.19599 13.797 8.89198C13.797 10.5102 12.6546 11.7024 10.2606 11.9502C10.9194 12.294 11.4 13.26 11.4 13.9878V15.6282C11.4 15.6906 11.3862 15.7356 11.379 15.789C14.1846 14.8056 16.2 12.1416 16.2 8.99999C16.2 5.02379 12.9762 1.79999 9.00005 1.79999Z" fill="#131212"/>
</svg>
