<svg width="18" height="18" viewBox="0 0 18 18" fill="none" xmlns="http://www.w3.org/2000/svg">
<g clip-path="url(#clip0_43_160)">
<path d="M17.5919 3.33221C17.3091 3.45763 17.0184 3.56348 16.7213 3.64941C17.073 3.25167 17.3411 2.78367 17.5048 2.27154C17.5415 2.15675 17.5035 2.0311 17.4091 1.95602C17.3149 1.88088 17.184 1.87188 17.0802 1.93337C16.4493 2.30754 15.7687 2.57644 15.055 2.73368C14.3361 2.03121 13.3597 1.63144 12.3503 1.63144C10.2196 1.63144 8.48619 3.36484 8.48619 5.49546C8.48619 5.66326 8.49681 5.83014 8.51783 5.9947C5.87386 5.76256 3.41582 4.46301 1.72788 2.39249C1.66773 2.31869 1.57506 2.27892 1.48018 2.28652C1.38525 2.29396 1.29995 2.34749 1.25199 2.42977C0.909639 3.01721 0.728652 3.68907 0.728652 4.37266C0.728652 5.30373 1.06107 6.18712 1.64828 6.87739C1.46973 6.81556 1.29646 6.73827 1.1311 6.64647C1.04232 6.59706 0.933968 6.59781 0.845768 6.64839C0.75751 6.69896 0.702175 6.79198 0.699852 6.89365C0.699446 6.91078 0.699446 6.92791 0.699446 6.94527C0.699446 8.33505 1.44743 9.58628 2.59101 10.2682C2.49277 10.2584 2.39458 10.2442 2.29703 10.2256C2.19646 10.2063 2.09305 10.2416 2.02523 10.3183C1.9573 10.3949 1.93483 10.5018 1.96612 10.5993C2.38941 11.9209 3.47923 12.8929 4.79671 13.1893C3.70399 13.8737 2.45439 14.2322 1.14259 14.2322C0.868878 14.2322 0.593594 14.2161 0.324175 14.1842C0.190336 14.1683 0.0623617 14.2473 0.0167811 14.3746C-0.0287996 14.502 0.0195101 14.6439 0.133375 14.7169C1.81858 15.7974 3.76717 16.3686 5.76836 16.3686C9.70246 16.3686 12.1635 14.5134 13.5353 12.9571C15.2459 11.0165 16.2269 8.44792 16.2269 5.90998C16.2269 5.80396 16.2253 5.69688 16.2221 5.59016C16.8969 5.08169 17.478 4.46632 17.9508 3.75904C18.0226 3.65162 18.0149 3.50965 17.9317 3.41077C17.8486 3.31183 17.7101 3.27983 17.5919 3.33221Z" fill="#131212"/>
</g>
<defs>
<clipPath id="clip0_43_160">
<rect width="18" height="18" fill="white"/>
</clipPath>
</defs>
</svg>
