<svg width="18" height="18" viewBox="0 0 18 18" fill="none" xmlns="http://www.w3.org/2000/svg">
<path d="M2.375 6.1875C2.375 4.08854 4.08854 2.375 6.1875 2.375H11.8125C13.9112 2.375 15.625 4.0885 15.625 6.1875V11.8125C15.625 13.9112 13.9112 15.625 11.8125 15.625H6.1875C4.0885 15.625 2.375 13.9112 2.375 11.8125V6.1875ZM11.8125 2.5H6.1875C4.14421 2.5 2.5 4.14421 2.5 6.1875V11.8125C2.5 13.8553 4.14424 15.5 6.1875 15.5H11.8125C13.8553 15.5 15.5 13.8553 15.5 11.8125V6.1875C15.5 4.14424 13.8553 2.5 11.8125 2.5ZM12.5 5.25C12.5 5.11177 12.6118 5 12.75 5C12.8882 5 13 5.11177 13 5.25C13 5.38823 12.8882 5.5 12.75 5.5C12.6118 5.5 12.5 5.38823 12.5 5.25ZM5.75 9C5.75 7.21183 7.21183 5.75 9 5.75C10.7882 5.75 12.25 7.21183 12.25 9C12.25 10.7882 10.7882 12.25 9 12.25C7.21183 12.25 5.75 10.7882 5.75 9ZM12.125 9C12.125 7.26766 10.7323 5.875 9 5.875C7.26766 5.875 5.875 7.26766 5.875 9C5.875 10.7323 7.26766 12.125 9 12.125C10.7323 12.125 12.125 10.7323 12.125 9Z" fill="#131212" stroke="#131212"/>
</svg>
