<svg width="18" height="18" viewBox="0 0 18 18" fill="none" xmlns="http://www.w3.org/2000/svg">
<g clip-path="url(#clip0_43_155)">
<path d="M4.18998 5.79077H0.576455C0.416081 5.79077 0.286133 5.92078 0.286133 6.08109V17.6898C0.286133 17.8502 0.416081 17.9801 0.576455 17.9801H4.18998C4.35036 17.9801 4.48031 17.8502 4.48031 17.6898V6.08109C4.48031 5.92078 4.35036 5.79077 4.18998 5.79077Z" fill="#131212"/>
<path d="M2.38448 0.0198059C1.06966 0.0198059 0 1.08831 0 2.40167C0 3.71561 1.06966 4.78452 2.38448 4.78452C3.69825 4.78452 4.76704 3.71555 4.76704 2.40167C4.7671 1.08831 3.69825 0.0198059 2.38448 0.0198059Z" fill="#131212"/>
<path d="M13.3812 5.50226C11.9299 5.50226 10.857 6.12616 10.2063 6.83507V6.0811C10.2063 5.92079 10.0763 5.79078 9.91595 5.79078H6.45536C6.29499 5.79078 6.16504 5.92079 6.16504 6.0811V17.6898C6.16504 17.8502 6.29499 17.9801 6.45536 17.9801H10.061C10.2214 17.9801 10.3513 17.8502 10.3513 17.6898V11.9462C10.3513 10.0107 10.877 9.25671 12.2262 9.25671C13.6956 9.25671 13.8124 10.4655 13.8124 12.0458V17.6899C13.8124 17.8503 13.9423 17.9802 14.1027 17.9802H17.7097C17.87 17.9802 18 17.8503 18 17.6899V11.3223C18 8.44433 17.4512 5.50226 13.3812 5.50226Z" fill="#131212"/>
</g>
<defs>
<clipPath id="clip0_43_155">
<rect width="18" height="18" fill="white"/>
</clipPath>
</defs>
</svg>
